<svg viewBox="0 0 235 38" fill="none" xmlns="http://www.w3.org/2000/svg">
<path d="M229 31.5C248.742 24.1692 208.5 4.5 208.5 4.5C208.5 4.5 229.375 23.5 218 28C206.625 32.5 172 36.9969 172 36.9969C172 36.9969 209.258 38.8308 229 31.5Z" fill="white" stroke="white"/>
<path d="M0.936 24.44L10.344 10.88H12.984L3.576 24.44H0.936ZM0.936 26V24.44L2.856 23.936H12.816V26H0.936ZM1.44 11.408V9.344H12.984V10.88L11.04 11.408H1.44ZM15.6002 26V14.6H17.7602V26H15.6002ZM16.6802 12.32C16.2802 12.32 15.9522 12.192 15.6962 11.936C15.4402 11.664 15.3122 11.328 15.3122 10.928C15.3122 10.544 15.4402 10.224 15.6962 9.968C15.9522 9.696 16.2802 9.56 16.6802 9.56C17.0802 9.56 17.4082 9.696 17.6642 9.968C17.9202 10.224 18.0482 10.544 18.0482 10.928C18.0482 11.328 17.9202 11.664 17.6642 11.936C17.4082 12.192 17.0802 12.32 16.6802 12.32ZM20.9434 26V14.6H23.1034V26H20.9434ZM28.6474 26V19.112C28.6474 18.264 28.3834 17.6 27.8554 17.12C27.3434 16.624 26.6954 16.376 25.9114 16.376C25.3834 16.376 24.9114 16.488 24.4954 16.712C24.0794 16.936 23.7434 17.248 23.4874 17.648C23.2314 18.048 23.1034 18.528 23.1034 19.088L22.2154 18.656C22.2154 17.792 22.3994 17.04 22.7674 16.4C23.1514 15.76 23.6714 15.264 24.3274 14.912C24.9834 14.544 25.7194 14.36 26.5354 14.36C27.3354 14.36 28.0554 14.536 28.6954 14.888C29.3514 15.24 29.8634 15.736 30.2314 16.376C30.6154 17.016 30.8074 17.776 30.8074 18.656V26H28.6474ZM36.3514 26V19.112C36.3514 18.264 36.0874 17.6 35.5594 17.12C35.0474 16.624 34.4074 16.376 33.6394 16.376C33.1114 16.376 32.6314 16.488 32.1994 16.712C31.7834 16.936 31.4474 17.248 31.1914 17.648C30.9354 18.048 30.8074 18.528 30.8074 19.088L29.5834 18.656C29.6314 17.776 29.8634 17.024 30.2794 16.4C30.7114 15.76 31.2634 15.264 31.9354 14.912C32.6074 14.544 33.3434 14.36 34.1434 14.36C34.9754 14.36 35.7194 14.536 36.3754 14.888C37.0314 15.24 37.5514 15.736 37.9354 16.376C38.3354 17.016 38.5354 17.784 38.5354 18.68V26H36.3514ZM47.4746 26.24C46.6106 26.24 45.8266 26.064 45.1226 25.712C44.4346 25.344 43.8826 24.84 43.4666 24.2C43.0506 23.56 42.8186 22.832 42.7706 22.016V18.584C42.8186 17.752 43.0506 17.024 43.4666 16.4C43.8986 15.76 44.4586 15.264 45.1466 14.912C45.8506 14.544 46.6266 14.36 47.4746 14.36C48.5146 14.36 49.4506 14.624 50.2826 15.152C51.1306 15.68 51.7946 16.392 52.2746 17.288C52.7546 18.184 52.9946 19.192 52.9946 20.312C52.9946 21.432 52.7546 22.44 52.2746 23.336C51.7946 24.232 51.1306 24.944 50.2826 25.472C49.4506 25.984 48.5146 26.24 47.4746 26.24ZM47.1146 24.2C47.8346 24.2 48.4666 24.032 49.0106 23.696C49.5546 23.36 49.9866 22.904 50.3066 22.328C50.6266 21.736 50.7866 21.056 50.7866 20.288C50.7866 19.536 50.6266 18.864 50.3066 18.272C49.9866 17.68 49.5546 17.224 49.0106 16.904C48.4666 16.568 47.8426 16.4 47.1386 16.4C46.4186 16.4 45.7866 16.568 45.2426 16.904C44.6986 17.224 44.2746 17.68 43.9706 18.272C43.6666 18.864 43.5146 19.544 43.5146 20.312C43.5146 21.064 43.6586 21.736 43.9466 22.328C44.2506 22.904 44.6746 23.36 45.2186 23.696C45.7786 24.032 46.4106 24.2 47.1146 24.2ZM41.4746 26V8.864H43.6346V17.384L43.2266 20.144L43.6346 22.928V26H41.4746ZM60.2914 26.24C59.2514 26.24 58.3074 25.984 57.4594 25.472C56.6114 24.944 55.9394 24.232 55.4434 23.336C54.9634 22.44 54.7234 21.432 54.7234 20.312C54.7234 19.192 54.9634 18.184 55.4434 17.288C55.9394 16.392 56.6034 15.68 57.4354 15.152C58.2834 14.624 59.2354 14.36 60.2914 14.36C61.1554 14.36 61.9234 14.544 62.5954 14.912C63.2834 15.264 63.8354 15.76 64.2514 16.4C64.6674 17.024 64.8994 17.752 64.9474 18.584V22.016C64.8994 22.832 64.6674 23.56 64.2514 24.2C63.8514 24.84 63.3074 25.344 62.6194 25.712C61.9474 26.064 61.1714 26.24 60.2914 26.24ZM60.6514 24.2C61.7234 24.2 62.5874 23.84 63.2434 23.12C63.8994 22.384 64.2274 21.448 64.2274 20.312C64.2274 19.528 64.0754 18.848 63.7714 18.272C63.4834 17.68 63.0674 17.224 62.5234 16.904C61.9794 16.568 61.3474 16.4 60.6274 16.4C59.9074 16.4 59.2674 16.568 58.7074 16.904C58.1634 17.24 57.7314 17.704 57.4114 18.296C57.1074 18.872 56.9554 19.536 56.9554 20.288C56.9554 21.056 57.1074 21.736 57.4114 22.328C57.7314 22.904 58.1714 23.36 58.7314 23.696C59.2914 24.032 59.9314 24.2 60.6514 24.2ZM64.0834 26V22.928L64.4914 20.144L64.0834 17.384V14.6H66.2674V26H64.0834ZM75.4121 26.24C74.5481 26.24 73.7641 26.064 73.0601 25.712C72.3721 25.344 71.8201 24.84 71.4041 24.2C70.9881 23.56 70.7561 22.832 70.7081 22.016V18.584C70.7561 17.752 70.9881 17.024 71.4041 16.4C71.8361 15.76 72.3961 15.264 73.0841 14.912C73.7881 14.544 74.5641 14.36 75.4121 14.36C76.4521 14.36 77.3881 14.624 78.2201 15.152C79.0681 15.68 79.7321 16.392 80.2121 17.288C80.6921 18.184 80.9321 19.192 80.9321 20.312C80.9321 21.432 80.6921 22.44 80.2121 23.336C79.7321 24.232 79.0681 24.944 78.2201 25.472C77.3881 25.984 76.4521 26.24 75.4121 26.24ZM75.0521 24.2C75.7721 24.2 76.4041 24.032 76.9481 23.696C77.4921 23.36 77.9241 22.904 78.2441 22.328C78.5641 21.736 78.7241 21.056 78.7241 20.288C78.7241 19.536 78.5641 18.864 78.2441 18.272C77.9241 17.68 77.4921 17.224 76.9481 16.904C76.4041 16.568 75.7801 16.4 75.0761 16.4C74.3561 16.4 73.7241 16.568 73.1801 16.904C72.6361 17.224 72.2121 17.68 71.9081 18.272C71.6041 18.864 71.4521 19.544 71.4521 20.312C71.4521 21.064 71.5961 21.736 71.8841 22.328C72.1881 22.904 72.6121 23.36 73.1561 23.696C73.7161 24.032 74.3481 24.2 75.0521 24.2ZM69.4121 26V8.864H71.5721V17.384L71.1641 20.144L71.5721 22.928V26H69.4121ZM86.3168 26L81.8048 14.6H84.0608L87.3248 23.48H86.6048L89.8448 14.6H91.0928L94.3328 23.48H93.6128L96.8768 14.6H99.1328L94.6448 26H93.3728L90.0848 17.384H90.8768L87.5648 26H86.3168ZM106.005 26.24C104.869 26.24 103.845 25.984 102.933 25.472C102.021 24.944 101.301 24.232 100.773 23.336C100.245 22.44 99.9806 21.424 99.9806 20.288C99.9806 19.168 100.237 18.16 100.749 17.264C101.277 16.368 101.981 15.664 102.861 15.152C103.757 14.624 104.757 14.36 105.861 14.36C106.917 14.36 107.845 14.6 108.645 15.08C109.461 15.56 110.093 16.224 110.541 17.072C111.005 17.92 111.237 18.88 111.237 19.952C111.237 20.112 111.229 20.288 111.213 20.48C111.197 20.656 111.165 20.864 111.117 21.104H101.493V19.304H109.965L109.173 20C109.173 19.232 109.037 18.584 108.765 18.056C108.493 17.512 108.109 17.096 107.613 16.808C107.117 16.504 106.517 16.352 105.813 16.352C105.077 16.352 104.429 16.512 103.869 16.832C103.309 17.152 102.877 17.6 102.573 18.176C102.269 18.752 102.117 19.432 102.117 20.216C102.117 21.016 102.277 21.72 102.597 22.328C102.917 22.92 103.373 23.384 103.965 23.72C104.557 24.04 105.237 24.2 106.005 24.2C106.645 24.2 107.229 24.088 107.757 23.864C108.301 23.64 108.765 23.304 109.149 22.856L110.541 24.272C109.997 24.912 109.325 25.4 108.525 25.736C107.741 26.072 106.901 26.24 106.005 26.24Z" fill="#FF1D53"/>
<path d="M124.031 26H114.164V8.86719H124.031V11.8438H117.797V15.6055H123.598V18.582H117.797V23H124.031V26ZM130.02 19.3086L125.801 12.8984H129.855L132.398 17.0703L134.965 12.8984H139.02L134.754 19.3086L139.219 26H135.152L132.398 21.5117L129.633 26H125.578L130.02 19.3086ZM148.5 12.6523C149.977 12.6523 151.168 13.2266 152.074 14.375C152.988 15.5234 153.445 17.207 153.445 19.4258C153.445 20.9102 153.23 22.1602 152.801 23.1758C152.371 24.1836 151.777 24.9453 151.02 25.4609C150.262 25.9766 149.391 26.2344 148.406 26.2344C147.773 26.2344 147.23 26.1562 146.777 26C146.324 25.8359 145.938 25.6289 145.617 25.3789C145.297 25.1211 145.02 24.8477 144.785 24.5586H144.598C144.66 24.8711 144.707 25.1914 144.738 25.5195C144.77 25.8477 144.785 26.168 144.785 26.4805V31.7656H141.211V12.8984H144.117L144.621 14.5977H144.785C145.02 14.2461 145.305 13.9219 145.641 13.625C145.977 13.3281 146.379 13.0938 146.848 12.9219C147.324 12.7422 147.875 12.6523 148.5 12.6523ZM147.352 15.5117C146.727 15.5117 146.23 15.6406 145.863 15.8984C145.496 16.1562 145.227 16.543 145.055 17.0586C144.891 17.5742 144.801 18.2266 144.785 19.0156V19.4023C144.785 20.2461 144.863 20.9609 145.02 21.5469C145.184 22.1328 145.453 22.5781 145.828 22.8828C146.211 23.1875 146.734 23.3398 147.398 23.3398C147.945 23.3398 148.395 23.1875 148.746 22.8828C149.098 22.5781 149.359 22.1328 149.531 21.5469C149.711 20.9531 149.801 20.2305 149.801 19.3789C149.801 18.0977 149.602 17.1328 149.203 16.4844C148.805 15.8359 148.188 15.5117 147.352 15.5117ZM163.711 12.6523C163.891 12.6523 164.098 12.6641 164.332 12.6875C164.574 12.7031 164.77 12.7266 164.918 12.7578L164.648 16.1094C164.531 16.0703 164.363 16.043 164.145 16.0273C163.934 16.0039 163.75 15.9922 163.594 15.9922C163.133 15.9922 162.684 16.0508 162.246 16.168C161.816 16.2852 161.43 16.4766 161.086 16.7422C160.742 17 160.469 17.3438 160.266 17.7734C160.07 18.1953 159.973 18.7148 159.973 19.332V26H156.398V12.8984H159.105L159.633 15.1016H159.809C160.066 14.6562 160.387 14.25 160.77 13.8828C161.16 13.5078 161.602 13.2109 162.094 12.9922C162.594 12.7656 163.133 12.6523 163.711 12.6523ZM172.699 12.6523C173.91 12.6523 174.953 12.8867 175.828 13.3555C176.703 13.8164 177.379 14.4883 177.855 15.3711C178.332 16.2539 178.57 17.332 178.57 18.6055V20.3398H170.121C170.16 21.3477 170.461 22.1406 171.023 22.7188C171.594 23.2891 172.383 23.5742 173.391 23.5742C174.227 23.5742 174.992 23.4883 175.688 23.3164C176.383 23.1445 177.098 22.8867 177.832 22.543V25.3086C177.184 25.6289 176.504 25.8633 175.793 26.0117C175.09 26.1602 174.234 26.2344 173.227 26.2344C171.914 26.2344 170.75 25.9922 169.734 25.5078C168.727 25.0234 167.934 24.2852 167.355 23.293C166.785 22.3008 166.5 21.0508 166.5 19.543C166.5 18.0117 166.758 16.7383 167.273 15.7227C167.797 14.6992 168.523 13.9336 169.453 13.4258C170.383 12.9102 171.465 12.6523 172.699 12.6523ZM172.723 15.1953C172.027 15.1953 171.449 15.418 170.988 15.8633C170.535 16.3086 170.273 17.0078 170.203 17.9609H175.219C175.211 17.4297 175.113 16.957 174.926 16.543C174.746 16.1289 174.473 15.8008 174.105 15.5586C173.746 15.3164 173.285 15.1953 172.723 15.1953ZM190.617 22.1094C190.617 23 190.406 23.7539 189.984 24.3711C189.57 24.9805 188.949 25.4453 188.121 25.7656C187.293 26.0781 186.262 26.2344 185.027 26.2344C184.113 26.2344 183.328 26.1758 182.672 26.0586C182.023 25.9414 181.367 25.7461 180.703 25.4727V22.5195C181.414 22.8398 182.176 23.1055 182.988 23.3164C183.809 23.5195 184.527 23.6211 185.145 23.6211C185.84 23.6211 186.336 23.5195 186.633 23.3164C186.938 23.1055 187.09 22.832 187.09 22.4961C187.09 22.2773 187.027 22.082 186.902 21.9102C186.785 21.7305 186.527 21.5312 186.129 21.3125C185.73 21.0859 185.105 20.793 184.254 20.4336C183.434 20.0898 182.758 19.7422 182.227 19.3906C181.703 19.0391 181.312 18.625 181.055 18.1484C180.805 17.6641 180.68 17.0508 180.68 16.3086C180.68 15.0977 181.148 14.1875 182.086 13.5781C183.031 12.9609 184.293 12.6523 185.871 12.6523C186.684 12.6523 187.457 12.7344 188.191 12.8984C188.934 13.0625 189.695 13.3242 190.477 13.6836L189.398 16.2617C188.75 15.9805 188.137 15.75 187.559 15.5703C186.988 15.3906 186.406 15.3008 185.812 15.3008C185.289 15.3008 184.895 15.3711 184.629 15.5117C184.363 15.6523 184.23 15.8672 184.23 16.1562C184.23 16.3672 184.297 16.5547 184.43 16.7188C184.57 16.8828 184.836 17.0664 185.227 17.2695C185.625 17.4648 186.207 17.7188 186.973 18.0312C187.715 18.3359 188.359 18.6562 188.906 18.9922C189.453 19.3203 189.875 19.7305 190.172 20.2227C190.469 20.707 190.617 21.3359 190.617 22.1094ZM202.547 22.1094C202.547 23 202.336 23.7539 201.914 24.3711C201.5 24.9805 200.879 25.4453 200.051 25.7656C199.223 26.0781 198.191 26.2344 196.957 26.2344C196.043 26.2344 195.258 26.1758 194.602 26.0586C193.953 25.9414 193.297 25.7461 192.633 25.4727V22.5195C193.344 22.8398 194.105 23.1055 194.918 23.3164C195.738 23.5195 196.457 23.6211 197.074 23.6211C197.77 23.6211 198.266 23.5195 198.562 23.3164C198.867 23.1055 199.02 22.832 199.02 22.4961C199.02 22.2773 198.957 22.082 198.832 21.9102C198.715 21.7305 198.457 21.5312 198.059 21.3125C197.66 21.0859 197.035 20.793 196.184 20.4336C195.363 20.0898 194.688 19.7422 194.156 19.3906C193.633 19.0391 193.242 18.625 192.984 18.1484C192.734 17.6641 192.609 17.0508 192.609 16.3086C192.609 15.0977 193.078 14.1875 194.016 13.5781C194.961 12.9609 196.223 12.6523 197.801 12.6523C198.613 12.6523 199.387 12.7344 200.121 12.8984C200.863 13.0625 201.625 13.3242 202.406 13.6836L201.328 16.2617C200.68 15.9805 200.066 15.75 199.488 15.5703C198.918 15.3906 198.336 15.3008 197.742 15.3008C197.219 15.3008 196.824 15.3711 196.559 15.5117C196.293 15.6523 196.16 15.8672 196.16 16.1562C196.16 16.3672 196.227 16.5547 196.359 16.7188C196.5 16.8828 196.766 17.0664 197.156 17.2695C197.555 17.4648 198.137 17.7188 198.902 18.0312C199.645 18.3359 200.289 18.6562 200.836 18.9922C201.383 19.3203 201.805 19.7305 202.102 20.2227C202.398 20.707 202.547 21.3359 202.547 22.1094Z" fill="#2D9AB3"/>
</svg>
